<?xml version="1.0" encoding="UTF-8"?>
<svg version="1.1" xmlns="http://www.w3.org/2000/svg" width="300" height="300">
<path d="M0 0 C99 0 198 0 300 0 C300 99 300 198 300 300 C201 300 102 300 0 300 C0 201 0 102 0 0 Z " fill="#93C501" transform="translate(0,0)"/>
<path d="M0 0 C4.62 0 9.24 0 14 0 C15 1 15 1 15.12304783 3.35633183 C15.12212604 4.40994121 15.12120424 5.46355059 15.12025452 6.54908752 C15.12231651 8.35598557 15.12231651 8.35598557 15.12442017 10.1993866 C15.12088056 11.54641748 15.11724575 12.89344812 15.11352539 14.24047852 C15.11324352 15.64947508 15.11340125 17.05847179 15.1139679 18.46746826 C15.11425589 22.3040763 15.10835894 26.14065334 15.10139394 29.97725415 C15.09516063 33.98246941 15.09455662 37.9876853 15.09336853 41.99290466 C15.09025515 49.58252004 15.08204167 57.17212108 15.07201904 64.76173013 C15.06085812 73.40003924 15.05534751 82.03834901 15.05032361 90.67666352 C15.03985906 108.45111737 15.02205905 126.22555701 15 144 C10.05 144 5.1 144 0 144 C0 137.73 0 131.46 0 125 C-0.66 125 -1.32 125 -2 125 C-2.185625 125.680625 -2.37125 126.36125 -2.5625 127.0625 C-7.02426648 136.18002282 -16.94283181 141.7379558 -26.1484375 145.17578125 C-41.17823832 148.39209765 -58.49057023 147.42175943 -71.75 139.3125 C-84.5590783 129.95834741 -93.40368899 117.78021641 -96 102 C-96.36417847 98.01671212 -96.48012438 94.06134567 -96.5 90.0625 C-96.50628418 89.1039209 -96.51256836 88.1453418 -96.51904297 87.15771484 C-96.27901511 73.74644968 -90.27707089 60.66502113 -81 51 C-67.16689361 39.01511857 -53.19970761 35.94623825 -35.30029297 36.80029297 C-22.36969218 37.92290297 -11.79023977 44.82678298 -3 54 C-2.01 55.98 -2.01 55.98 -1 58 C-0.67 38.86 -0.34 19.72 0 0 Z " fill="#FAFCF4" transform="translate(229,78)"/>
<path d="M0 0 C9.02690579 6.13596975 15.81888851 14.39120321 19.1484375 24.96875 C21.65025057 39.22607024 18.86680313 51.31169288 10.6484375 63.03125 C4.21002489 70.48625408 -4.56776998 77.24630144 -14.60791016 78.25878906 C-17.21274653 78.41972514 -19.80456756 78.49536586 -22.4140625 78.53125 C-23.25291992 78.54978027 -24.09177734 78.56831055 -24.95605469 78.58740234 C-31.21444785 78.52489195 -35.85721607 76.96570696 -41.3515625 74.03125 C-42.21007812 73.57363281 -43.06859375 73.11601562 -43.953125 72.64453125 C-53.41594988 66.56128668 -59.08698425 57.82498476 -62.6015625 47.28125 C-64.93992654 36.49528251 -63.74928059 24.27876028 -58.0390625 14.71875 C-57.17101862 13.46980329 -56.27499398 12.23982038 -55.3515625 11.03125 C-54.88621094 10.41507813 -54.42085937 9.79890625 -53.94140625 9.1640625 C-41.28518489 -6.5634019 -17.40408619 -10.2233793 0 0 Z " fill="#94C504" transform="translate(210.3515625,132.96875)"/>
<path d="M0 0 C4.95 0 9.9 0 15 0 C15 47.52 15 95.04 15 144 C10.05 144 5.1 144 0 144 C0 96.48 0 48.96 0 0 Z " fill="#F9FCF1" transform="translate(55,78)"/>
<path d="M0 0 C4.95 0 9.9 0 15 0 C15 34.65 15 69.3 15 105 C10.05 105 5.1 105 0 105 C0 70.35 0 35.7 0 0 Z " fill="#F8FBF0" transform="translate(97,117)"/>
<path d="M0 0 C4.0743356 0.84881992 5.54405875 2.30225596 8 5.625 C8.625 8.625 8.625 8.625 8 11.625 C5.54405875 14.94774404 4.0743356 16.40118008 0 17.25 C-4.0743356 16.40118008 -5.54405875 14.94774404 -8 11.625 C-8.625 8.625 -8.625 8.625 -8 5.625 C-5.54405875 2.30225596 -4.0743356 0.84881992 0 0 Z " fill="#F5F9E8" transform="translate(104,77.375)"/>
<path d="M0 0 C0.66 0.33 1.32 0.66 2 1 C0.625 3 0.625 3 -1 5 C-1.66 5 -2.32 5 -3 5 C-4.93503849 6.62705939 -6.7847415 8.27183846 -8.625 10 C-9.3984375 10.71542969 -9.3984375 10.71542969 -10.1875 11.4453125 C-11.46242802 12.6258014 -12.73174919 13.81234038 -14 15 C-14.66 14.67 -15.32 14.34 -16 14 C-13.06006416 9.9825634 -9.76235288 7.07197856 -5.75 4.1875 C-4.91855469 3.57745117 -4.91855469 3.57745117 -4.0703125 2.95507812 C-2.71789547 1.96408289 -1.35955093 0.98118534 0 0 Z " fill="#EAF4D0" transform="translate(160,120)"/>
</svg>
